<svg display="block" role="presentation" viewBox="0 0 205 31" xmlns="http://www.w3.org/2000/svg"><g d="M 41.775 29.835 C 43.572 29.692 44.593 29.302 45.366 28.518 C 45.684 28.197 46.246 26.703 46.67 25.565 C 47.798 22.47 49.101 18.484 49.416 17.522 C 50.331 14.818 52.41 8.377 53.432 5.139 L 50.016 5.104 C 47.939 5.068 43.887 9.303 42.866 10.513 L 42.549 10.335 L 44.521 4.57 L 66.64 4.57 L 64.632 10.478 L 64.28 10.478 C 64.174 8.697 63.117 5.176 62.272 5.176 L 57.588 5.141 C 56.532 8.344 54.136 15.711 53.503 17.524 C 52.869 19.41 51.882 22.577 50.968 25.317 C 50.616 26.349 50.192 27.737 50.192 28.27 C 50.192 29.266 51.952 29.693 53.151 29.835 L 53.045 30.191 L 41.669 30.191 Z M 68.858 29.194 C 68.858 28.27 69.14 27.416 69.386 26.703 C 69.986 25.065 71.956 20.154 72.415 18.874 C 72.873 17.522 73.19 16.598 73.19 16.062 C 73.19 15.634 73.156 15.316 72.732 15.316 C 72.132 15.316 71.324 15.922 70.655 16.561 C 69.034 18.163 67.378 20.084 66.746 21.827 C 66.287 23.072 64.914 27.093 63.858 30.189 L 60.371 30.189 L 68.86 6.276 C 69.071 5.708 69.106 5.244 69.071 5.031 L 66.993 4.746 L 66.993 4.355 L 72.982 4.355 L 67.698 19.195 L 67.804 19.23 C 70.34 15.421 73.334 13.037 75.552 13.037 C 76.573 13.037 76.96 13.961 76.96 14.71 C 76.96 15.459 76.677 16.561 76.256 17.663 L 72.417 27.982 L 72.523 27.982 C 73.651 27.306 75.376 25.847 76.608 24.531 L 76.856 24.78 C 76.117 25.884 71.819 30.366 70.27 30.366 C 69.495 30.366 68.897 29.868 68.862 29.192 Z M 78.507 29.159 C 78.507 28.34 78.93 27.308 79.211 26.597 C 79.845 24.96 81.077 22.042 81.781 20.227 C 82.803 17.63 83.472 16.1 83.472 15.671 C 83.507 15.386 83.437 15.351 83.261 15.351 C 82.803 15.351 81.288 16.668 79.704 18.411 L 79.422 18.163 C 81.36 15.388 84.282 13.11 85.62 13.11 C 86.5 13.11 87.1 13.573 87.1 14.569 C 87.1 15.459 86.466 17.309 85.762 19.017 L 82.029 28.27 L 82.135 28.377 C 83.474 27.631 85.482 25.78 86.503 24.749 L 86.75 25.034 C 86.046 26.208 81.996 30.373 79.989 30.373 C 78.933 30.373 78.509 29.874 78.509 29.163 L 78.507 29.159 Z M 85.447 7.24 C 85.447 6.03 86.327 5.211 87.385 5.211 C 87.899 5.209 88.393 5.415 88.757 5.783 C 89.121 6.15 89.324 6.649 89.323 7.169 C 89.324 7.698 89.116 8.206 88.746 8.58 C 88.376 8.954 87.873 9.164 87.35 9.163 C 86.257 9.163 85.449 8.344 85.449 7.242 Z M 91.75 20.013 C 92.665 17.487 93.019 15.849 93.019 15.601 C 93.019 15.353 93.019 15.246 92.843 15.246 C 92.456 15.246 91.046 16.348 89.321 18.697 L 89.004 18.484 C 91.222 14.818 94.112 12.967 95.379 12.967 C 96.048 12.967 96.471 13.287 96.471 14.141 C 96.471 14.995 95.978 16.916 95.52 18.198 L 95.626 18.233 C 98.057 14.247 100.065 13.072 101.297 13.072 C 101.811 13.071 102.305 13.277 102.669 13.644 C 103.033 14.012 103.236 14.511 103.235 15.03 C 103.235 15.992 102.531 16.916 101.369 16.916 C 99.96 16.916 99.713 15.849 99.361 14.995 C 97.953 15.316 95.628 18.589 94.818 20.867 C 93.479 24.569 92.528 27.273 91.402 30.191 L 87.88 30.191 C 89.429 26.312 90.979 22.185 91.754 20.013 Z M 99.569 27.807 C 99.569 21.721 106.155 13.252 110.418 13.252 C 111.545 13.252 112.18 13.821 112.46 14.392 L 115.207 5.532 C 115.313 5.211 115.172 5.068 114.924 5.033 L 112.986 4.748 L 112.986 4.357 L 119.044 4.357 C 117.143 9.944 114.431 18.448 112.775 23.644 C 112.317 25.104 111.648 27.025 111.648 27.453 C 111.648 27.703 111.683 27.843 111.895 27.843 C 112.423 27.843 114.818 25.637 115.734 24.498 L 115.982 24.746 C 115.03 26.348 111.052 30.368 109.149 30.368 C 108.339 30.368 107.987 29.977 107.987 29.194 C 107.987 28.305 108.797 25.991 109.394 23.927 L 109.288 23.82 C 107.633 26.382 104.463 30.368 101.82 30.368 C 100.13 30.368 99.567 29.336 99.567 27.806 L 99.569 27.806 Z M 109.818 21.899 C 111.05 19.515 111.543 17.059 111.543 16.064 C 111.543 14.782 111.05 13.788 110.099 13.788 C 107.352 13.788 103.161 23.679 103.161 26.882 C 103.161 27.807 103.478 28.127 104.076 28.127 C 105.52 28.127 107.95 25.493 109.816 21.899 Z M 129.145 18.481 C 129.145 11.241 133.445 5.62 140.714 5.62 C 146.413 5.62 149.86 8.931 150.508 13.482 L 147.506 13.482 C 146.927 10.414 144.504 8.31 140.647 8.31 C 135.289 8.31 132.287 12.69 132.287 18.481 C 132.287 24.273 135.596 28.584 140.681 28.584 C 145.288 28.584 147.472 25.412 147.778 21.792 L 150.815 21.792 C 150.781 24.24 149.62 26.998 147.881 28.722 C 146.174 30.412 143.683 31.309 140.579 31.309 C 133.652 31.309 129.147 25.964 129.147 18.484 Z M 156.615 15.343 L 156.683 15.343 C 157.945 13.653 159.72 12.584 162.28 12.584 C 165.965 12.584 168.216 14.619 168.216 18.307 L 168.216 30.823 L 165.452 30.823 L 165.452 18.55 C 165.452 16.24 163.95 14.929 161.459 14.929 C 158.661 14.929 156.613 16.929 156.613 19.859 L 156.613 30.823 L 153.848 30.823 L 153.848 6.173 L 156.613 6.173 L 156.613 15.343 L 156.615 15.343 Z M 182.685 28.342 L 182.65 28.342 C 181.592 29.721 179.783 31.168 176.781 31.168 C 173.437 31.168 170.809 29.583 170.809 26.204 C 170.809 21.998 174.086 21.136 178.488 20.446 C 180.978 20.067 182.72 19.825 182.72 17.894 C 182.72 15.963 181.287 14.758 178.762 14.758 C 175.895 14.758 174.462 15.998 174.36 18.688 L 171.697 18.688 C 171.8 15.241 174.053 12.655 178.727 12.655 C 182.48 12.655 185.245 14.069 185.245 18.31 L 185.245 26.791 C 185.245 28.239 185.587 29.033 187.122 28.687 L 187.224 28.687 L 187.224 30.722 C 186.882 30.861 186.438 30.997 185.722 30.997 C 183.913 30.997 182.957 30.17 182.685 28.342 Z M 182.753 24.24 L 182.753 21.207 C 181.832 21.792 180.227 22.24 178.725 22.517 C 175.96 23.034 173.744 23.518 173.744 26.138 C 173.744 28.518 175.586 29.035 177.395 29.035 C 181.081 29.035 182.753 26.312 182.753 24.242 Z M 189.271 6.173 L 192.035 6.173 L 192.035 9.619 L 189.271 9.619 Z M 189.271 13 L 192.035 13 L 192.035 30.826 L 189.271 30.826 Z M 198.551 15.965 L 198.619 15.965 C 199.677 14.241 201.519 12.793 203.874 12.793 C 204.386 12.793 204.658 12.862 205 13 L 205 15.69 L 204.898 15.69 C 204.488 15.551 204.216 15.519 203.67 15.519 C 200.94 15.519 198.551 17.586 198.551 20.932 L 198.551 30.827 L 195.787 30.827 L 195.787 13.003 L 198.551 13.003 L 198.551 15.967 L 198.551 15.965 Z M 23.468 3.416 L 30.181 3.416 L 30.181 0 L 23.469 0 L 23.469 3.416 Z M 23.468 30.51 L 30.181 30.51 L 30.181 27.12 L 23.469 27.12 L 23.469 30.51 Z M 20.116 27.122 L 23.484 27.122 L 23.484 3.387 L 20.116 3.387 Z M 6.713 0 L 0 0 L 0 3.416 L 6.713 3.416 Z M 18.613 0 L 11.665 0 L 11.665 2.899 L 18.613 2.899 Z M 18.709 27.612 L 11.761 27.612 L 11.761 30.51 L 18.709 30.51 L 18.709 27.612 Z M 6.713 27.119 L 0 27.119 L 0 30.511 L 6.713 30.511 Z M 10.074 3.412 L 6.705 3.412 L 6.705 27.147 L 10.074 27.147 L 10.074 3.412 Z M 16.674 2.903 L 13.596 2.903 L 13.596 27.655 L 16.674 27.655 Z" fill="transparent" height="31.309090325279143px" id="J70ofmvRM" width="205.0000011598528px"><path d="M 0.106 25.48 C 1.903 25.337 2.924 24.946 3.698 24.163 C 4.015 23.842 4.578 22.347 5.002 21.21 C 6.129 18.115 7.433 14.128 7.748 13.167 C 8.663 10.462 10.742 4.022 11.763 0.784 L 8.347 0.748 C 6.27 0.713 2.218 4.948 1.197 6.158 L 0.88 5.98 L 2.853 0.215 L 24.971 0.215 L 22.963 6.122 L 22.611 6.122 C 22.505 4.342 21.449 0.821 20.604 0.821 L 15.92 0.786 C 14.863 3.989 12.467 11.356 11.835 13.169 C 11.2 15.055 10.214 18.222 9.299 20.962 C 8.947 21.994 8.523 23.381 8.523 23.915 C 8.523 24.911 10.283 25.337 11.483 25.48 L 11.376 25.835 L 0 25.835 Z M 27.189 24.839 C 27.189 23.915 27.472 23.061 27.717 22.347 C 28.317 20.71 30.288 15.799 30.746 14.519 C 31.204 13.167 31.522 12.243 31.522 11.707 C 31.522 11.279 31.487 10.961 31.063 10.961 C 30.464 10.961 29.655 11.566 28.986 12.205 C 27.365 13.808 25.71 15.729 25.077 17.472 C 24.619 18.717 23.246 22.738 22.19 25.834 L 18.703 25.834 L 27.192 1.921 C 27.402 1.352 27.437 0.889 27.402 0.676 L 25.325 0.391 L 25.325 0 L 31.313 0 L 26.029 14.84 L 26.136 14.875 C 28.671 11.066 31.665 8.682 33.883 8.682 C 34.905 8.682 35.292 9.606 35.292 10.355 C 35.292 11.103 35.009 12.205 34.587 13.307 L 30.748 23.627 L 30.855 23.627 C 31.982 22.951 33.707 21.492 34.939 20.176 L 35.187 20.424 C 34.448 21.528 30.151 26.011 28.602 26.011 C 27.826 26.011 27.228 25.513 27.193 24.837 Z M 36.839 24.803 C 36.839 23.985 37.262 22.953 37.543 22.242 C 38.177 20.604 39.409 17.687 40.113 15.871 C 41.134 13.275 41.803 11.744 41.803 11.316 C 41.838 11.031 41.768 10.996 41.593 10.996 C 41.134 10.996 39.62 12.313 38.036 14.056 L 37.753 13.808 C 39.691 11.033 42.614 8.755 43.952 8.755 C 44.832 8.755 45.431 9.217 45.431 10.214 C 45.431 11.103 44.797 12.954 44.093 14.662 L 40.36 23.915 L 40.467 24.022 C 41.805 23.276 43.813 21.425 44.834 20.393 L 45.082 20.679 C 44.378 21.853 40.328 26.017 38.32 26.017 C 37.264 26.017 36.84 25.519 36.84 24.808 L 36.839 24.804 Z M 43.778 2.884 C 43.778 1.675 44.658 0.856 45.716 0.856 C 46.231 0.854 46.725 1.06 47.088 1.428 C 47.452 1.795 47.656 2.294 47.654 2.814 C 47.655 3.343 47.448 3.851 47.077 4.225 C 46.707 4.599 46.205 4.809 45.681 4.807 C 44.589 4.807 43.78 3.988 43.78 2.886 Z M 50.081 15.658 C 50.996 13.132 51.35 11.494 51.35 11.246 C 51.35 10.998 51.35 10.89 51.174 10.89 C 50.787 10.89 49.377 11.992 47.652 14.341 L 47.335 14.128 C 49.554 10.462 52.443 8.612 53.71 8.612 C 54.379 8.612 54.803 8.932 54.803 9.786 C 54.803 10.64 54.31 12.561 53.851 13.843 L 53.957 13.878 C 56.389 9.892 58.396 8.717 59.628 8.717 C 60.143 8.716 60.636 8.921 61 9.289 C 61.364 9.657 61.568 10.156 61.566 10.675 C 61.566 11.637 60.862 12.561 59.7 12.561 C 58.292 12.561 58.044 11.494 57.692 10.64 C 56.284 10.96 53.96 14.234 53.149 16.512 C 51.811 20.213 50.859 22.918 49.734 25.835 L 46.212 25.835 C 47.761 21.956 49.31 17.829 50.086 15.658 Z M 57.901 23.451 C 57.901 17.366 64.486 8.897 68.749 8.897 C 69.877 8.897 70.511 9.466 70.792 10.037 L 73.538 1.177 C 73.644 0.856 73.503 0.713 73.256 0.678 L 71.318 0.393 L 71.318 0.002 L 77.375 0.002 C 75.474 5.588 72.762 14.093 71.107 19.289 C 70.648 20.749 69.979 22.67 69.979 23.098 C 69.979 23.348 70.014 23.488 70.227 23.488 C 70.755 23.488 73.149 21.282 74.066 20.143 L 74.314 20.391 C 73.362 21.993 69.384 26.013 67.48 26.013 C 66.67 26.013 66.318 25.622 66.318 24.839 C 66.318 23.95 67.129 21.636 67.726 19.572 L 67.62 19.465 C 65.964 22.026 62.794 26.013 60.152 26.013 C 58.461 26.013 57.899 24.981 57.899 23.451 L 57.901 23.451 Z M 68.15 17.544 C 69.381 15.16 69.875 12.704 69.875 11.709 C 69.875 10.427 69.381 9.433 68.43 9.433 C 65.684 9.433 61.493 19.324 61.493 22.527 C 61.493 23.451 61.81 23.772 62.407 23.772 C 63.852 23.772 66.281 21.138 68.148 17.544 Z M 87.477 14.126 C 87.477 6.885 91.776 1.265 99.045 1.265 C 104.745 1.265 108.191 4.576 108.84 9.126 L 105.838 9.126 C 105.259 6.059 102.835 3.955 98.978 3.955 C 93.62 3.955 90.618 8.335 90.618 14.126 C 90.618 19.918 93.927 24.229 99.013 24.229 C 103.619 24.229 105.803 21.057 106.11 17.436 L 109.147 17.436 C 109.112 19.885 107.952 22.643 106.212 24.367 C 104.505 26.057 102.015 26.954 98.91 26.954 C 91.983 26.954 87.479 21.609 87.479 14.128 Z M 114.946 10.988 L 115.014 10.988 C 116.277 9.298 118.051 8.229 120.611 8.229 C 124.297 8.229 126.548 10.264 126.548 13.952 L 126.548 26.468 L 123.783 26.468 L 123.783 14.195 C 123.783 11.885 122.281 10.574 119.791 10.574 C 116.993 10.574 114.945 12.574 114.945 15.503 L 114.945 26.468 L 112.18 26.468 L 112.18 1.818 L 114.945 1.818 L 114.945 10.988 L 114.946 10.988 Z M 141.017 23.987 L 140.982 23.987 C 139.924 25.366 138.115 26.813 135.112 26.813 C 131.768 26.813 129.141 25.228 129.141 21.849 C 129.141 17.643 132.417 16.781 136.819 16.091 C 139.31 15.712 141.051 15.47 141.051 13.539 C 141.051 11.608 139.619 10.402 137.093 10.402 C 134.226 10.402 132.794 11.643 132.691 14.333 L 130.029 14.333 C 130.131 10.886 132.385 8.3 137.059 8.3 C 140.812 8.3 143.577 9.714 143.577 13.955 L 143.577 22.436 C 143.577 23.884 143.918 24.678 145.453 24.332 L 145.556 24.332 L 145.556 26.367 C 145.214 26.506 144.77 26.642 144.053 26.642 C 142.245 26.642 141.289 25.815 141.017 23.987 Z M 141.084 19.885 L 141.084 16.852 C 140.163 17.436 138.559 17.885 137.057 18.162 C 134.292 18.679 132.076 19.163 132.076 21.783 C 132.076 24.163 133.917 24.68 135.726 24.68 C 139.412 24.68 141.084 21.956 141.084 19.887 Z M 147.602 1.818 L 150.367 1.818 L 150.367 5.264 L 147.602 5.264 Z M 147.602 8.645 L 150.367 8.645 L 150.367 26.47 L 147.602 26.47 Z M 156.883 11.61 L 156.951 11.61 C 158.009 9.886 159.85 8.438 162.206 8.438 C 162.717 8.438 162.99 8.506 163.331 8.645 L 163.331 11.335 L 163.229 11.335 C 162.82 11.196 162.548 11.163 162.001 11.163 C 159.271 11.163 156.883 13.231 156.883 16.577 L 156.883 26.472 L 154.118 26.472 L 154.118 8.647 L 156.883 8.647 L 156.883 11.612 L 156.883 11.61 Z" fill="rgb(245, 245, 245)" height="26.953929612083343px" id="QLbO_zTub" transform="translate(41.669 4.355)" width="163.3314525758684px"/><path d="M 0 3.416 L 6.713 3.416 L 6.713 0 L 0 0 L 0 3.416 Z M 0 30.51 L 6.713 30.51 L 6.713 27.12 L 0 27.12 L 0 30.51 Z" fill="rgb(52, 168, 189)" height="30.51032248395495px" id="zeZHGz0ku" transform="translate(23.468 0)" width="6.712627456633697px"/><path d="M 0 23.735 L 3.369 23.735 L 3.369 0 L 0 0 Z" fill="rgb(52, 168, 189)" height="23.73498171672169px" id="FzGIpiHO3" transform="translate(20.116 3.387)" width="3.3686067482036037px"/><path d="M 6.713 0 L 0 0 L 0 3.416 L 6.713 3.416 Z M 18.613 0 L 11.665 0 L 11.665 2.899 L 18.613 2.899 Z M 18.709 27.612 L 11.761 27.612 L 11.761 30.51 L 18.709 30.51 L 18.709 27.612 Z M 6.713 27.119 L 0 27.119 L 0 30.511 L 6.713 30.511 Z" fill="rgb(245, 245, 245)" height="30.51064535105877px" id="P9daVyrOZ" width="18.70901741694871px"/><path d="M 3.369 0.509 L 0 0.509 L 0 24.243 L 3.369 24.243 L 3.369 0.508 Z M 9.969 0 L 6.89 0 L 6.89 24.752 L 9.969 24.752 Z" fill="rgb(245, 245, 245)" height="24.751508525260604px" id="vlyM_KKUy" transform="translate(6.705 2.903)" width="9.968521640450888px"/></g></svg>