<?xml version="1.0" encoding="utf-8"?>
<!-- Generator: Adobe Illustrator 20.1.0, SVG Export Plug-In . SVG Version: 6.00 Build 0)  -->
<svg version="1.1" id="Layer_2" xmlns="http://www.w3.org/2000/svg" xmlns:xlink="http://www.w3.org/1999/xlink" x="0px" y="0px"
	 viewBox="0 0 630 250" style="enable-background:new 0 0 630 250;" xml:space="preserve">
<path d="M509,58.1v183.4h112V58.1H509z M578.1,196.2c0,7.3-5.8,13.1-13.1,13.1s-13.1-5.8-13.1-13.1V104c0-7.3,5.8-13.1,13.1-13.1
	s13.1,5.8,13.1,13.1V196.2z"/>
<path d="M9,58.1v33.6h62.1c7.3,0,13.1,5.8,13.1,13.1c0,7.3-5.8,13.1-13.1,13.1H9v123.7h115.1V58.1H9z M79.5,196.2
	c0,7.3-5.8,13.1-13.1,13.1s-13.1-5.8-13.1-13.1v-41.8c0-7.3,5.8-13.1,13.1-13.1s13.1,5.8,13.1,13.1V196.2z"/>
<path d="M453.4,174.4v21.8c0,7.3-5.8,13.1-13.1,13.1c-7.3,0-13.1-5.8-13.1-13.1V104c0-7.3,5.8-13.1,13.1-13.1
	c7.3,0,13.1,5.8,13.1,13.1v15h42.9V58.2h-112v183.4h112v-67.2L453.4,174.4L453.4,174.4z"/>
<path d="M190.7,59.3c-6.9,0-12.3-5.6-12.3-12.3V6.5h-42v235.1H246V59.3H190.7z M204.2,196.2c0,7.3-5.8,13.1-13.1,13.1
	s-13.1-5.8-13.1-13.1V104c0-7.3,5.8-13.1,13.1-13.1s13.1,5.8,13.1,13.1V196.2z"/>
<path d="M342.2,134.4c31.5-15.5,31.3-42.2,31.3-42.2V58.1h-46.1v46.6c0,7.3-5.8,13.1-13.1,13.1c-7.3,0-13.1-5.8-13.1-13.1V6.4h-43.5
	v235.1h43.5v-78.9c0-7.3,5.8-13.1,13.1-13.1c7.3,0,13.1,5.8,13.1,13.1v78.9h46.1V174C370.4,139.7,342.2,134.4,342.2,134.4z"/>
</svg>
