<?xml version="1.0" standalone="no"?>
<!DOCTYPE svg PUBLIC "-//W3C//DTD SVG 20010904//EN"
 "http://www.w3.org/TR/2001/REC-SVG-20010904/DTD/svg10.dtd">
<svg version="1.0" xmlns="http://www.w3.org/2000/svg"
 width="230.000000pt" height="230.000000pt" viewBox="0 0 230.000000 230.000000"
 preserveAspectRatio="xMidYMid meet">

<g transform="translate(0.000000,230.000000) scale(0.100000,-0.100000)"
fill="#000000" stroke="none">
<path d="M945 2223 c-220 -46 -405 -144 -556 -293 -376 -372 -434 -932 -143
-1387 42 -66 171 -202 244 -257 123 -94 260 -159 417 -198 128 -32 372 -32
493 0 222 59 380 149 530 302 247 251 356 603 295 955 -78 444 -416 785 -873
880 -94 19 -313 19 -407 -2z m381 -8 c549 -96 936 -581 900 -1128 -28 -424
-287 -781 -681 -937 -334 -132 -726 -84 -1020 125 -75 54 -218 201 -266 275
-126 192 -179 371 -179 608 0 113 4 155 25 241 60 246 203 466 398 612 88 65
248 148 337 173 160 46 336 57 486 31z"/>
<path d="M1030 2186 c0 -2 29 -34 65 -72 l64 -69 0 35 c0 19 -3 29 -6 22 -3
-7 -22 7 -50 38 -25 27 -51 50 -59 50 -8 0 -14 -2 -14 -4z"/>
<path d="M1145 2180 c3 -5 8 -10 11 -10 2 0 4 5 4 10 0 6 -5 10 -11 10 -5 0
-7 -4 -4 -10z"/>
<path d="M1243 2138 c-1 -29 -4 -62 -8 -75 -4 -18 -1 -23 15 -23 17 0 20 7 20
53 0 28 3 62 6 75 5 17 2 22 -12 22 -16 0 -19 -9 -21 -52z"/>
<path d="M915 2161 c-3 -5 -1 -12 4 -16 6 -3 13 -33 17 -66 5 -47 10 -59 21
-55 8 4 16 6 18 6 2 0 -3 25 -12 56 -8 31 -12 63 -9 70 6 16 -29 20 -39 5z"/>
<path d="M1368 2159 c-24 -14 -23 -56 2 -71 22 -14 26 -48 8 -66 -8 -8 -9 -12
-1 -12 17 0 43 29 43 48 0 9 -12 29 -27 44 -24 25 -26 31 -15 48 14 23 13 23
-10 9z"/>
<path d="M1416 2135 c4 -8 8 -15 10 -15 2 0 4 7 4 15 0 8 -4 15 -10 15 -5 0
-7 -7 -4 -15z"/>
<path d="M807 2133 c-10 -9 -9 -43 1 -43 13 0 43 -81 35 -93 -3 -6 -2 -8 3 -5
5 3 17 8 27 11 17 6 17 8 3 22 -9 9 -23 38 -33 65 -17 49 -23 56 -36 43z"/>
<path d="M1485 2120 c-8 -13 5 -13 25 0 13 8 13 10 -2 10 -9 0 -20 -4 -23 -10z"/>
<path d="M1523 2053 c-13 -32 -27 -61 -29 -65 -3 -4 5 -12 17 -18 15 -9 19 -9
15 -1 -4 6 4 36 18 67 29 62 31 74 15 74 -5 0 -22 -26 -36 -57z"/>
<path d="M690 2083 c1 -12 27 -43 32 -38 2 3 20 -11 38 -30 40 -41 50 -43 50
-10 0 16 -4 23 -13 19 -8 -3 -26 10 -41 31 -24 30 -67 49 -66 28z"/>
<path d="M1607 2069 c6 -23 9 -24 16 -5 3 8 0 17 -7 19 -10 4 -12 -1 -9 -14z"/>
<path d="M1045 2050 c-3 -5 1 -10 10 -10 9 0 13 5 10 10 -3 6 -8 10 -10 10 -2
0 -7 -4 -10 -10z"/>
<path d="M1320 2045 c0 -8 5 -15 10 -15 6 0 10 7 10 15 0 8 -4 15 -10 15 -5 0
-10 -7 -10 -15z"/>
<path d="M1660 1987 c-19 -29 -39 -55 -45 -59 -6 -5 -5 -11 5 -17 11 -8 23 3
54 50 23 35 35 63 30 69 -5 5 -23 -13 -44 -43z"/>
<path d="M570 2009 c-12 -8 -11 -9 6 -4 15 4 32 -3 54 -21 26 -23 31 -33 28
-61 -3 -29 -2 -31 10 -19 51 51 -38 147 -98 105z"/>
<path d="M1735 1999 c6 -15 -13 -43 -34 -51 -15 -5 -18 -80 -3 -85 8 -3 12 8
12 36 0 34 3 41 19 41 27 0 38 38 16 59 -15 15 -16 15 -10 0z"/>
<path d="M735 1980 c9 -30 13 -35 21 -27 3 3 -2 16 -11 29 l-17 23 7 -25z"/>
<path d="M990 1985 c-143 -30 -255 -83 -365 -171 -274 -218 -386 -579 -284
-911 124 -402 531 -656 940 -588 293 48 521 221 644 488 47 101 65 176 72 299
7 133 -8 233 -53 352 -98 255 -313 449 -574 518 -98 26 -290 33 -380 13z m352
-20 c174 -37 359 -156 473 -305 333 -436 162 -1071 -347 -1281 -194 -80 -439
-79 -635 3 -249 103 -433 321 -494 584 -28 124 -24 310 11 419 46 144 114 260
210 354 210 208 486 288 782 226z"/>
<path d="M1147 1906 c-4 -9 -16 -16 -27 -16 -24 0 -27 -15 -4 -24 10 -4 13
-13 9 -26 -7 -21 9 -28 21 -9 4 8 9 8 17 0 17 -17 29 -13 22 8 -4 13 0 23 12
30 17 9 17 10 -2 17 -11 4 -25 14 -31 22 -9 13 -12 13 -17 -2z"/>
<path d="M824 1834 c4 -10 -1 -25 -10 -35 -16 -18 -16 -19 3 -19 11 0 24 -10
30 -22 l10 -23 7 23 c5 13 15 22 28 22 18 0 19 2 7 17 -8 9 -12 25 -11 37 4
18 2 18 -12 6 -13 -10 -20 -10 -28 -2 -17 17 -31 15 -24 -4z"/>
<path d="M1461 1836 c-8 -10 -21 -14 -32 -11 -20 7 -26 -9 -9 -20 7 -4 6 -13
-1 -26 -9 -18 -8 -20 9 -17 10 2 26 -3 35 -11 15 -12 17 -11 17 7 0 11 7 23
17 26 14 6 15 8 0 19 -8 6 -17 21 -19 31 -3 18 -4 18 -17 2z"/>
<path d="M1020 1782 c-120 -40 -191 -107 -259 -243 -27 -53 -56 -108 -66 -122
-11 -17 -19 -56 -22 -105 -10 -147 13 -212 76 -212 30 0 36 -7 72 -80 8 -15
13 -70 13 -136 1 -92 4 -115 19 -131 9 -11 17 -25 17 -31 0 -11 33 -115 49
-157 34 -85 71 -143 113 -178 45 -38 51 -40 116 -40 130 0 188 66 263 297 17
50 37 105 46 122 11 22 14 48 11 100 -5 69 8 164 25 175 5 4 14 17 21 30 8 16
23 26 47 29 52 9 56 14 69 85 16 86 -3 245 -29 245 -5 0 -16 20 -25 44 -54
142 -135 238 -244 289 -58 27 -80 32 -162 34 -71 2 -109 -2 -150 -15z m245
-27 c74 -19 158 -75 201 -134 18 -25 55 -96 83 -158 l52 -112 -3 -108 -3 -108
-26 -3 -27 -3 0 93 c0 51 -6 115 -12 142 -6 27 -8 51 -5 55 8 8 25 -20 25 -43
0 -11 3 -17 6 -13 10 10 -7 67 -20 67 -11 0 -66 99 -66 118 0 4 10 -4 21 -18
17 -21 17 -18 -3 17 -50 88 -140 163 -213 178 -16 3 -5 -4 25 -16 52 -21 170
-123 170 -147 0 -6 -28 18 -62 52 -54 53 -74 66 -136 86 -100 31 -198 25 -288
-20 -74 -36 -122 -88 -171 -184 -19 -37 -37 -66 -39 -63 -3 3 9 32 25 66 17
34 29 61 26 61 -11 0 -64 -119 -69 -156 -3 -21 -3 -30 0 -19 11 38 27 42 20 5
-3 -19 -9 -87 -13 -150 -4 -72 -9 -107 -14 -95 -6 17 -8 17 -8 3 -1 -10 -7
-18 -15 -18 -20 0 -30 75 -23 169 5 66 13 91 62 190 82 165 151 232 275 267
63 17 155 17 225 -1z m13 -81 c78 -22 156 -100 197 -196 15 -38 15 -38 -8 -38
-17 0 -28 10 -40 35 -29 60 -87 115 -161 151 -94 45 -130 44 -232 -5 -82 -39
-120 -74 -155 -142 -13 -26 -26 -39 -40 -39 -24 0 -20 22 17 87 37 65 68 97
123 126 81 45 186 52 299 21z m-6 -86 c33 -17 72 -48 88 -69 27 -34 38 -59 25
-59 -12 0 -83 50 -88 62 -4 10 -6 9 -6 -2 -1 -8 -26 -35 -56 -60 -29 -24 -52
-46 -50 -48 1 -2 28 11 58 28 52 29 57 30 84 17 31 -17 78 -60 100 -94 13 -19
11 -31 -12 -108 -15 -47 -32 -88 -38 -90 -7 -2 -24 -6 -39 -9 -15 -4 -32 -16
-38 -27 -11 -19 -10 -20 12 -6 13 8 41 17 64 21 36 5 44 2 68 -23 16 -16 26
-35 24 -42 -4 -12 -99 -41 -107 -33 -2 2 2 10 9 19 7 8 8 15 2 15 -5 0 -17
-10 -25 -22 l-16 -23 -25 28 c-14 15 -30 44 -35 65 -6 21 -22 53 -36 72 -31
42 -32 50 -2 23 17 -15 32 -19 65 -15 27 2 42 0 42 -7 0 -24 19 -9 33 28 9 22
21 42 27 46 19 12 10 40 -27 78 -41 44 -56 44 -136 7 l-44 -21 7 -44 c4 -25 5
-45 3 -45 -1 0 -9 15 -18 33 -12 28 -14 29 -12 7 1 -14 15 -48 31 -75 16 -27
30 -60 31 -74 1 -14 3 -29 3 -33 1 -4 27 -35 57 -69 30 -34 55 -68 55 -76 0
-24 -30 -27 -46 -4 -8 11 -20 21 -26 21 -6 0 -4 -8 5 -18 24 -26 21 -32 -13
-32 -19 0 -30 5 -30 14 0 8 -4 17 -9 20 -4 3 -6 -6 -3 -21 4 -22 2 -25 -12
-20 -10 4 -26 7 -37 7 -11 0 -19 7 -20 18 -1 16 -2 16 -6 0 -3 -12 -14 -18
-34 -18 -40 0 -44 2 -41 20 2 12 0 11 -11 -2 -14 -18 -57 -25 -57 -10 0 4 7
18 16 31 l17 23 -27 -17 c-14 -10 -26 -21 -26 -26 0 -5 -7 -9 -15 -9 -25 0
-17 44 11 71 44 40 84 101 84 127 0 14 14 47 30 74 17 26 30 58 30 71 -1 22
-1 22 -15 -3 l-15 -25 6 30 c4 17 7 35 8 40 1 11 -74 50 -115 60 -37 9 -99
-45 -99 -86 0 -16 4 -29 8 -29 5 0 16 -18 25 -40 8 -22 21 -40 27 -40 6 0 8 5
5 11 -5 6 10 9 43 8 32 -2 57 3 68 11 9 8 5 -3 -10 -24 -14 -21 -28 -53 -32
-71 -5 -28 -45 -85 -60 -85 -3 0 -15 10 -25 23 -20 22 -20 22 -14 1 6 -22 -3
-22 -92 2 -20 5 -15 21 18 59 25 28 34 33 49 25 10 -6 30 -10 43 -10 14 0 30
-7 37 -15 7 -9 15 -13 18 -10 10 10 -31 45 -53 45 -13 0 -28 6 -34 14 -13 16
-51 141 -51 168 0 25 69 99 108 115 32 13 36 12 84 -17 28 -17 52 -29 54 -27
3 2 -19 24 -49 48 -36 30 -52 50 -50 64 3 19 2 19 -8 -1 -9 -18 -38 -37 -92
-62 -17 -8 22 54 50 79 32 30 94 65 138 79 45 14 102 3 167 -32z m-426 -203
c-9 -17 -10 -40 -5 -72 15 -91 11 -158 -11 -178 -39 -35 -50 -14 -50 92 0 108
12 168 37 182 29 16 43 3 29 -24z m663 -9 c26 -84 24 -256 -3 -256 -7 0 -22
10 -34 23 -20 21 -20 27 -11 126 7 74 6 107 -2 117 -15 18 -3 33 21 27 10 -3
23 -19 29 -37z m-614 -359 c3 -6 11 -41 18 -76 11 -52 11 -73 0 -114 -13 -51
-10 -71 10 -64 7 2 20 -3 31 -12 18 -15 18 -15 12 9 -6 21 -5 22 4 8 6 -10 17
-18 24 -18 8 0 21 -10 29 -22 l16 -23 0 22 c1 22 5 23 49 7 9 -4 27 -6 40 -5
13 2 22 -3 22 -11 0 -8 3 -9 8 -2 4 6 15 14 26 17 14 6 17 4 12 -10 -6 -15 -5
-16 11 -1 10 9 29 19 42 23 22 7 23 5 18 -21 -5 -27 -4 -27 9 -9 8 10 14 21
14 24 0 3 12 11 26 18 22 10 25 10 20 -4 -6 -14 -4 -14 10 -2 10 8 25 13 36
11 21 -4 22 12 8 74 -6 27 -5 64 3 115 11 66 15 74 36 77 22 4 23 2 15 -30 -4
-18 -7 -73 -6 -121 3 -87 3 -88 -28 -115 -17 -15 -47 -48 -66 -73 -42 -58 -94
-81 -184 -81 -97 -1 -142 15 -185 65 -20 23 -52 58 -71 77 -33 35 -34 38 -34
120 0 47 -4 102 -9 123 -8 33 -7 37 10 37 11 0 22 -6 24 -13z m95 -111 c0 -9
-7 -12 -20 -9 -11 3 -17 9 -14 14 8 14 34 10 34 -5z m83 -29 c10 -43 10 -44
-18 -49 -15 -2 -25 7 -38 34 -22 44 -15 60 21 56 21 -2 28 -10 35 -41z m72 -2
c0 -31 -4 -41 -19 -43 -22 -5 -36 14 -36 49 0 32 8 41 35 37 16 -2 20 -10 20
-43z m59 39 c32 -12 11 -84 -24 -84 -16 0 -20 7 -20 38 0 50 9 60 44 46z m92
-9 c11 -28 -16 -75 -42 -75 -21 0 -24 5 -24 38 0 21 3 42 7 45 12 13 54 7 59
-8z m54 6 c0 -5 -9 -11 -20 -14 -20 -5 -26 3 -13 16 9 10 33 8 33 -2z m-401
-98 c-15 -27 -33 -31 -25 -5 3 9 8 30 12 46 l7 30 9 -24 c6 -16 5 -32 -3 -47z
m71 1 c12 -36 7 -54 -15 -54 -19 0 -22 7 -30 70 l-7 55 20 -19 c12 -10 26 -34
32 -52z m312 19 c-5 -52 -16 -73 -38 -73 -21 0 -17 50 6 88 28 45 38 40 32
-15z m41 2 c16 -45 12 -56 -11 -33 -11 11 -18 78 -8 78 2 0 11 -20 19 -45z
m-282 -37 l2 -23 4 23 c3 17 10 22 26 20 25 -3 34 -43 17 -68 -9 -13 -12 -13
-25 4 -12 16 -17 17 -31 5 -14 -11 -18 -11 -30 6 -24 33 -17 47 29 54 4 0 8
-9 8 -21z m111 -13 c-7 -60 -42 -59 -42 1 0 31 3 35 23 32 18 -2 21 -8 19 -33z
m66 20 c8 -7 -20 -55 -32 -55 -21 0 -28 15 -20 45 5 21 11 24 28 19 11 -4 22
-8 24 -9z m-328 -147 c0 -12 -14 -10 -28 4 -19 19 -14 29 8 16 11 -7 20 -16
20 -20z m446 -4 c-11 -8 -13 -13 -5 -16 8 -3 6 -10 -6 -22 -10 -9 -24 -15 -33
-11 -8 3 -21 0 -28 -6 -8 -6 -14 -7 -14 -2 0 15 47 36 61 28 9 -6 10 -3 5 10
-4 11 0 25 11 37 12 14 19 16 22 7 2 -7 -4 -18 -13 -25z m-431 -30 c6 0 15 -2
22 -2 6 -1 19 -16 27 -34 19 -38 20 -44 3 -30 -8 7 -17 6 -30 -3 -18 -13 -17
-14 10 -29 28 -16 28 -16 3 -14 -26 3 -63 61 -55 85 2 7 0 15 -5 18 -6 4 -10
11 -10 16 0 6 6 7 13 2 6 -4 17 -8 22 -9z m379 -46 c-5 -9 -2 -8 9 1 22 17 32
9 19 -16 -6 -10 -22 -44 -37 -75 -14 -32 -33 -58 -41 -58 -8 0 -14 -6 -14 -13
0 -14 -67 -53 -76 -44 -4 3 -15 2 -26 -4 -10 -5 -24 -6 -31 -2 -6 4 -22 6 -34
4 -13 -1 -23 2 -23 7 0 5 6 9 13 8 6 0 14 4 15 9 7 20 26 36 41 34 9 -1 25 1
36 6 23 9 85 71 78 79 -3 2 8 13 23 22 20 14 29 15 32 6 2 -7 8 -10 13 -6 5 3
2 12 -7 21 -13 14 -17 14 -24 2 -5 -7 -12 -11 -15 -7 -3 3 1 13 10 22 20 19
50 22 39 4z m-64 -6 c0 -3 -12 -24 -27 -47 -27 -44 -68 -75 -98 -75 -26 0
-105 88 -105 118 0 4 52 8 115 8 63 0 115 -2 115 -4z m-249 -32 c10 -6 19 -15
19 -21 0 -6 6 -16 13 -23 6 -8 19 -23 27 -35 8 -11 20 -21 27 -21 7 0 13 -3
13 -6 0 -10 -42 -44 -54 -44 -14 0 -66 55 -66 69 0 6 -4 11 -9 11 -5 0 -12 7
-15 16 -4 11 -2 15 8 11 8 -3 20 1 26 8 10 12 9 16 -4 21 -9 3 -16 10 -16 15
0 12 7 11 31 -1z"/>
<path d="M1113 1733 c26 -2 67 -2 90 0 23 2 2 3 -48 3 -49 0 -68 -1 -42 -3z"/>
<path d="M1010 1720 c-11 -8 -7 -9 15 -4 37 8 45 14 19 14 -10 0 -26 -5 -34
-10z"/>
<path d="M950 1694 c-38 -26 -100 -87 -111 -109 -6 -11 7 -1 28 23 21 23 58
56 83 72 25 17 40 30 35 30 -6 0 -22 -7 -35 -16z"/>
<path d="M1511 1495 c0 -5 6 -21 14 -35 8 -14 14 -20 14 -15 0 6 -6 21 -14 35
-8 14 -14 21 -14 15z"/>
<path d="M742 1335 c0 -16 2 -22 5 -12 2 9 2 23 0 30 -3 6 -5 -1 -5 -18z"/>
<path d="M1564 1240 c0 -58 1 -81 3 -52 2 28 2 76 0 105 -2 28 -3 5 -3 -53z"/>
<path d="M733 1240 c0 -36 2 -50 4 -32 2 17 2 47 0 65 -2 17 -4 3 -4 -33z"/>
<path d="M1121 1195 c-38 -44 -43 -98 -10 -116 15 -8 19 -8 15 0 -5 7 6 11 31
11 28 0 34 -3 23 -10 -8 -5 -10 -10 -4 -10 17 0 44 34 44 56 0 20 -20 53 -51
87 -15 17 -18 16 -48 -18z"/>
<path d="M955 601 c-19 -8 -19 -8 4 -20 15 -8 21 -9 17 -2 -4 6 -2 11 3 11 6
0 11 5 11 10 0 12 -7 12 -35 1z"/>
<path d="M1290 520 c-13 -9 -13 -11 0 -20 19 -13 30 -13 30 0 0 6 -5 10 -11
10 -5 0 -7 5 -4 10 8 12 4 12 -15 0z"/>
<path d="M1262 469 c2 -7 10 -15 17 -17 8 -3 12 1 9 9 -2 7 -10 15 -17 17 -8
3 -12 -1 -9 -9z"/>
<path d="M1220 443 c0 -14 19 -38 25 -32 8 8 -5 39 -16 39 -5 0 -9 -3 -9 -7z"/>
<path d="M1180 415 c-10 -12 -15 -13 -20 -4 -10 16 -30 2 -23 -16 7 -20 23
-19 39 3 13 16 13 16 14 0 0 -11 5 -15 14 -12 16 6 15 36 -1 41 -5 2 -16 -3
-23 -12z"/>
<path d="M1021 466 c-9 -11 -7 -15 7 -18 12 -4 18 1 18 13 0 22 -9 24 -25 5z"/>
<path d="M1056 434 c-8 -22 -8 -24 7 -24 7 0 13 9 14 20 2 24 -12 27 -21 4z"/>
<path d="M595 1638 c-4 -10 -16 -18 -27 -18 -17 0 -18 -2 -8 -15 10 -12 10
-19 2 -27 -18 -18 -14 -27 8 -21 11 3 27 0 35 -7 13 -10 15 -9 15 9 0 12 7 24
15 27 20 8 19 24 0 24 -9 0 -20 10 -24 23 -8 19 -10 20 -16 5z"/>
<path d="M1690 1630 c0 -12 -8 -29 -17 -36 -17 -12 -17 -13 3 -14 14 0 24 -8
28 -22 6 -21 7 -21 17 -5 5 9 19 17 31 17 17 0 18 3 8 15 -6 8 -9 23 -5 36 6
18 5 20 -11 11 -14 -8 -23 -7 -36 5 -17 15 -18 14 -18 -7z"/>
<path d="M440 1345 c0 -7 -8 -18 -17 -24 -17 -9 -17 -10 0 -16 9 -4 17 -16 17
-27 0 -17 3 -18 15 -8 8 6 23 9 35 5 20 -6 21 -5 10 15 -9 16 -9 25 1 36 9 11
8 14 -9 14 -12 0 -24 5 -27 10 -9 15 -25 12 -25 -5z"/>
<path d="M1844 1343 c-4 -14 -14 -23 -26 -23 -18 0 -19 -2 -7 -17 8 -9 12 -25
11 -37 -3 -17 -2 -18 12 -7 9 7 24 10 37 6 18 -6 21 -4 15 10 -4 11 0 26 11
38 17 19 17 19 -5 13 -17 -6 -24 -2 -32 16 l-9 23 -7 -22z"/>
<path d="M417 1029 c3 -9 0 -20 -6 -23 -16 -10 -13 -27 3 -24 8 2 21 -6 29
-16 14 -19 15 -19 21 2 5 14 16 22 29 22 20 1 21 2 5 14 -10 7 -18 19 -18 27
0 9 -12 14 -34 15 -27 0 -32 -3 -29 -17z"/>
<path d="M1856 1042 c-5 -8 -19 -12 -32 -9 -26 5 -31 -2 -13 -20 8 -8 8 -13 0
-17 -18 -11 -13 -26 8 -26 11 0 23 -5 27 -12 5 -7 10 -4 15 10 5 12 16 22 26
22 16 1 17 2 2 13 -9 7 -18 21 -21 32 -3 15 -5 17 -12 7z"/>
<path d="M580 756 c0 -11 -9 -16 -26 -16 -22 0 -25 -2 -14 -15 7 -8 10 -23 7
-34 -3 -14 0 -17 14 -14 11 3 26 0 34 -7 13 -10 15 -9 15 10 0 13 8 29 18 36
16 12 15 13 -5 14 -13 0 -23 6 -23 14 0 8 -4 18 -10 21 -5 3 -10 -1 -10 -9z"/>
<path d="M1690 751 c0 -12 -7 -24 -15 -27 -20 -8 -19 -24 0 -24 9 0 20 -10 24
-22 8 -20 10 -21 16 -5 4 9 16 17 26 17 16 0 18 3 9 19 -7 13 -7 22 0 26 18
11 11 27 -7 16 -13 -7 -23 -5 -35 6 -17 15 -18 14 -18 -6z"/>
<path d="M820 552 c0 -14 -8 -26 -22 -31 l-23 -8 23 -7 c14 -5 22 -16 22 -29
1 -21 1 -21 15 -4 9 13 20 17 35 12 19 -6 20 -5 9 13 -10 17 -10 24 2 38 13
16 12 17 -10 11 -17 -4 -29 -1 -37 11 -12 15 -13 15 -14 -6z"/>
<path d="M1455 548 c-4 -10 -16 -18 -26 -18 -10 0 -19 -4 -19 -10 0 -5 5 -10
11 -10 7 0 9 -10 7 -25 -6 -27 1 -32 20 -13 9 9 15 9 24 0 17 -17 29 -15 21 3
-3 9 3 25 12 35 18 19 17 20 -8 20 -16 0 -27 6 -30 18 -4 16 -4 16 -12 0z"/>
<path d="M520 1975 c-7 -9 -8 -15 -2 -15 6 0 26 -25 45 -55 31 -50 35 -53 53
-40 10 8 14 15 7 15 -6 0 -29 25 -51 55 -34 48 -41 54 -52 40z"/>
<path d="M1862 1878 c-6 -6 -12 -18 -12 -24 0 -20 -19 -27 -35 -14 -8 7 -20
10 -27 7 -9 -4 -8 -6 3 -6 9 -1 22 -8 29 -16 10 -12 9 -20 -3 -39 -14 -20 -14
-26 -3 -35 11 -9 19 2 41 53 28 66 31 98 7 74z"/>
<path d="M400 1862 c1 -16 18 -29 59 -42 24 -8 50 -20 57 -27 11 -11 15 -10
23 5 8 15 0 21 -65 44 -41 15 -74 24 -74 20z"/>
<path d="M1730 1834 c0 -1 6 -7 14 -13 10 -9 15 -8 19 3 4 10 0 14 -14 13 -10
-1 -19 -2 -19 -3z"/>
<path d="M435 1790 c3 -5 8 -10 11 -10 2 0 4 5 4 10 0 6 -5 10 -11 10 -5 0 -7
-4 -4 -10z"/>
<path d="M1940 1792 c0 -4 9 -8 20 -9 11 -1 18 2 15 8 -7 11 -35 12 -35 1z"/>
<path d="M450 1754 c0 -17 17 -36 24 -26 3 5 -1 15 -9 22 -8 7 -15 9 -15 4z"/>
<path d="M1929 1711 c-52 -34 -55 -39 -43 -56 8 -10 14 -14 14 -8 0 6 25 29
55 50 30 22 52 43 48 46 -10 10 -13 9 -74 -32z"/>
<path d="M2023 1688 c-2 -16 1 -18 10 -9 7 7 8 14 1 21 -6 6 -10 2 -11 -12z"/>
<path d="M255 1670 c-3 -6 1 -7 9 -4 18 7 21 14 7 14 -6 0 -13 -4 -16 -10z"/>
<path d="M370 1632 c0 -4 4 -13 9 -20 7 -11 9 -11 14 1 3 9 -1 18 -9 21 -8 3
-14 2 -14 -2z"/>
<path d="M225 1613 c-3 -9 -4 -16 -3 -17 2 -1 31 -15 66 -32 59 -30 63 -31 72
-14 14 26 13 28 -13 23 -13 -3 -30 1 -38 9 -8 7 -29 20 -46 30 -28 15 -32 15
-38 1z"/>
<path d="M300 1620 c0 -6 7 -10 15 -10 8 0 15 2 15 4 0 2 -7 6 -15 10 -8 3
-15 1 -15 -4z"/>
<path d="M2015 1589 c-27 -16 -56 -27 -62 -24 -16 5 -16 0 -2 -27 6 -12 14
-16 18 -11 8 14 87 53 106 53 17 0 18 2 9 24 -8 20 -9 20 -69 -15z"/>
<path d="M180 1510 c0 -5 -3 -15 -6 -23 -4 -12 0 -14 14 -10 11 2 26 -2 33 -9
7 -8 23 -13 34 -10 12 2 29 -3 37 -12 15 -14 17 -14 22 0 10 27 7 31 -33 37
-22 3 -54 12 -70 20 -17 9 -31 12 -31 7z"/>
<path d="M2022 1493 c-11 -10 -23 -29 -27 -43 l-7 -25 22 23 c28 30 68 45 100
37 24 -5 24 -5 6 10 -26 20 -69 19 -94 -2z"/>
<path d="M2117 1404 c-30 -26 -66 -31 -99 -13 -15 8 -19 8 -14 0 4 -6 20 -18
36 -26 36 -18 72 -7 96 30 23 35 15 38 -19 9z"/>
<path d="M146 1404 c-3 -9 -6 -17 -6 -19 0 -1 18 -5 39 -8 22 -3 54 -12 72
-21 40 -20 39 -20 39 4 0 13 -7 20 -20 20 -10 0 -25 6 -32 13 -6 8 -22 12 -34
9 -12 -2 -25 1 -28 7 -10 16 -23 14 -30 -5z"/>
<path d="M130 1299 c0 -5 5 -7 10 -4 6 3 10 8 10 11 0 2 -4 4 -10 4 -5 0 -10
-5 -10 -11z"/>
<path d="M2101 1248 c-76 -79 -56 -92 24 -17 50 49 68 79 46 79 -5 0 -36 -28
-70 -62z"/>
<path d="M2030 1284 c0 -8 5 -12 10 -9 6 4 8 11 5 16 -9 14 -15 11 -15 -7z"/>
<path d="M2098 1293 c7 -3 16 -2 19 1 4 3 -2 6 -13 5 -11 0 -14 -3 -6 -6z"/>
<path d="M120 1240 c0 -14 14 -18 88 -22 51 -4 62 -2 62 11 0 13 -15 17 -75
19 -48 2 -75 -1 -75 -8z"/>
<path d="M2166 1201 c-3 -5 1 -11 9 -15 9 -3 15 0 15 9 0 16 -16 20 -24 6z"/>
<path d="M120 1188 c0 -9 5 -20 11 -23 17 -11 18 -2 3 19 -12 17 -14 17 -14 4z"/>
<path d="M187 1123 c-11 -10 -8 -61 3 -68 6 -4 10 10 10 34 0 42 -2 46 -13 34z"/>
<path d="M2107 1123 c-11 -10 -8 -73 3 -73 6 0 10 18 10 40 0 41 -2 45 -13 33z"/>
<path d="M2070 1064 c0 -24 23 -74 35 -74 15 0 48 47 43 62 -2 6 -11 4 -21 -7
-16 -16 -18 -16 -37 7 -11 12 -19 18 -20 12z"/>
<path d="M150 1054 c0 -12 42 -64 51 -64 11 0 40 62 33 69 -2 2 -12 -3 -23
-13 -16 -15 -19 -15 -31 -1 -12 15 -30 20 -30 9z"/>
<path d="M220 969 c-11 -19 -13 -19 -29 -5 -38 34 -43 7 -6 -29 29 -29 42 -31
49 -7 2 9 7 27 11 40 8 28 -10 29 -25 1z"/>
<path d="M2060 968 c0 -13 8 -32 16 -43 15 -20 16 -19 46 14 31 35 24 57 -8
30 -14 -11 -18 -10 -29 4 -17 23 -25 21 -25 -5z"/>
<path d="M241 902 c-9 -18 -16 -20 -31 -12 -40 21 -42 0 -4 -35 35 -33 42 -32
50 9 8 47 1 67 -15 38z"/>
<path d="M2040 898 c1 -13 7 -34 14 -47 l14 -25 31 31 c39 39 42 62 5 38 -22
-14 -28 -15 -35 -4 -5 8 -9 17 -9 22 0 4 -4 7 -10 7 -5 0 -10 -10 -10 -22z"/>
<path d="M2020 833 c0 -42 11 -73 24 -73 16 0 71 58 64 66 -4 3 -16 1 -27 -6
-24 -12 -41 -6 -41 15 0 8 -4 17 -10 20 -6 4 -10 -6 -10 -22z"/>
<path d="M263 830 c-6 -21 -28 -27 -38 -10 -3 6 -13 10 -21 10 -21 0 -2 -32
32 -55 26 -17 28 -17 41 1 16 22 17 74 2 74 -6 0 -13 -9 -16 -20z"/>
<path d="M294 766 c-6 -24 -9 -26 -43 -20 l-36 7 20 -23 c11 -12 32 -28 47
-36 l27 -14 7 46 c8 52 -10 86 -22 40z"/>
<path d="M1990 747 c0 -58 16 -68 60 -37 39 28 39 44 0 35 -16 -4 -30 -3 -30
2 0 5 -7 18 -15 29 -13 18 -14 15 -15 -29z"/>
<path d="M1957 716 c-12 -32 -8 -86 8 -92 17 -7 76 25 83 45 3 10 -2 13 -22 9
-14 -3 -26 -1 -26 5 0 6 -3 7 -7 3 -4 -3 -12 6 -18 21 -10 24 -12 25 -18 9z"/>
<path d="M322 695 c-10 -21 -16 -24 -44 -18 l-33 6 20 -22 c11 -13 33 -28 50
-35 28 -12 30 -11 35 13 7 31 1 81 -10 81 -4 0 -12 -11 -18 -25z"/>
<path d="M362 630 c-10 -27 -14 -29 -44 -23 -31 6 -32 5 -18 -12 8 -10 33 -26
55 -37 29 -13 33 -17 13 -13 -45 9 -42 -14 4 -35 24 -11 49 -20 56 -20 13 0
17 65 6 94 -9 25 -24 19 -24 -10 0 -15 -4 -23 -11 -19 -6 4 -8 14 -4 22 7 19
-4 83 -15 83 -4 0 -13 -13 -18 -30z"/>
<path d="M1916 644 c-3 -9 -6 -34 -7 -57 l-1 -42 -10 35 -11 35 -13 -30 c-7
-16 -13 -45 -14 -64 0 -32 1 -33 32 -27 38 7 78 32 78 47 0 7 -10 9 -26 5 -17
-5 -23 -3 -19 4 3 5 12 10 18 10 7 0 27 9 45 20 38 23 35 45 -3 30 -17 -6 -25
-6 -25 1 0 6 -4 7 -10 4 -6 -4 -10 5 -10 19 0 29 -15 35 -24 10z"/>
<path d="M457 536 c-4 -10 -4 -22 -1 -28 10 -15 -16 -28 -56 -28 l-35 0 30
-20 c17 -11 39 -20 49 -20 19 0 19 0 1 -14 -18 -13 -17 -14 13 -30 17 -9 43
-16 57 -16 15 0 35 -5 46 -10 23 -13 25 -4 4 16 -8 9 -15 24 -15 35 0 26 -32
87 -37 72 -7 -19 -23 -15 -23 5 0 10 -6 26 -13 36 -13 18 -14 18 -20 2z"/>
<path d="M1821 518 c-5 -18 -12 -44 -14 -58 -4 -21 -5 -19 -6 8 0 17 -5 32
-10 32 -9 0 -41 -71 -41 -92 0 -6 -7 -20 -17 -30 -9 -10 -11 -18 -5 -18 6 0
14 5 17 10 3 6 20 10 36 10 16 0 46 7 67 16 l37 16 -25 10 -25 10 26 8 c14 4
36 13 50 21 24 14 24 14 -16 19 -37 5 -40 8 -43 38 -2 17 -7 32 -12 32 -5 0
-13 -15 -19 -32z"/>
<path d="M640 389 c0 -6 -13 -30 -29 -54 -21 -31 -26 -46 -18 -54 6 -6 15 -11
21 -11 5 0 6 3 3 7 -4 3 7 29 23 58 27 48 30 65 8 65 -4 0 -8 -5 -8 -11z"/>
<path d="M1641 391 c-10 -7 -6 -18 18 -51 17 -24 31 -49 31 -57 0 -11 4 -11
21 -3 18 10 19 13 5 23 -8 7 -26 31 -38 54 -17 29 -28 39 -37 34z"/>
<path d="M700 350 c0 -5 5 -10 10 -10 6 0 10 5 10 10 0 6 -4 10 -10 10 -5 0
-10 -4 -10 -10z"/>
<path d="M1576 352 c-8 -14 50 -120 62 -113 7 4 2 26 -16 63 -27 56 -36 66
-46 50z"/>
<path d="M650 315 c0 -8 2 -15 4 -15 2 0 6 7 10 15 3 8 1 15 -4 15 -6 0 -10
-7 -10 -15z"/>
<path d="M733 314 c-3 -9 -1 -24 5 -33 22 -30 25 -44 13 -62 -13 -21 -2 -26
17 -7 16 16 15 44 -4 73 -9 13 -13 29 -9 35 3 5 1 10 -5 10 -6 0 -13 -7 -17
-16z"/>
<path d="M1510 320 c-10 -6 -11 -12 -3 -22 6 -7 17 -32 24 -56 9 -30 17 -41
27 -37 7 3 16 5 18 5 2 0 -3 11 -12 25 -9 14 -22 41 -28 59 -9 26 -16 32 -26
26z"/>
<path d="M790 310 c0 -5 5 -10 10 -10 6 0 10 5 10 10 0 6 -4 10 -10 10 -5 0
-10 -4 -10 -10z"/>
<path d="M820 290 c0 -5 7 -7 15 -4 8 4 15 8 15 10 0 2 -7 4 -15 4 -8 0 -15
-4 -15 -10z"/>
<path d="M1440 289 c0 -5 5 -7 10 -4 6 3 10 8 10 11 0 2 -4 4 -10 4 -5 0 -10
-5 -10 -11z"/>
<path d="M866 258 c-3 -18 -12 -45 -20 -60 -12 -23 -12 -27 1 -33 19 -7 16
-10 30 45 7 25 15 53 18 63 5 11 2 17 -8 17 -9 0 -17 -13 -21 -32z"/>
<path d="M925 270 c3 -5 11 -10 16 -10 6 0 7 5 4 10 -3 6 -11 10 -16 10 -6 0
-7 -4 -4 -10z"/>
<path d="M1367 274 c-3 -4 13 -22 36 -41 23 -20 46 -41 50 -49 8 -14 37 -20
37 -7 0 8 -101 103 -110 103 -4 0 -9 -3 -13 -6z"/>
<path d="M657 263 c-9 -2 -15 -9 -12 -14 9 -14 22 -11 29 6 3 8 4 14 3 14 -1
-1 -10 -3 -20 -6z"/>
<path d="M1023 237 c8 -13 21 -42 28 -65 12 -42 21 -45 39 -12 8 15 7 18 -3
14 -10 -3 -18 9 -27 40 -10 35 -17 46 -32 46 -19 0 -19 -2 -5 -23z"/>
<path d="M1297 253 c-3 -5 -2 -34 0 -65 5 -49 8 -58 25 -58 14 0 18 5 14 15
-3 8 -8 37 -12 65 -6 46 -16 62 -27 43z"/>
<path d="M701 234 c0 -11 3 -14 6 -6 3 7 2 16 -1 19 -3 4 -6 -2 -5 -13z"/>
<path d="M1125 238 c-2 -7 -5 -37 -8 -65 -3 -45 -1 -53 13 -53 13 0 16 7 12
28 -2 16 1 45 6 65 9 30 8 37 -4 37 -8 0 -16 -6 -19 -12z"/>
<path d="M1190 241 c0 -5 6 -14 13 -20 8 -6 22 -29 32 -51 18 -40 35 -53 35
-26 0 24 -51 106 -66 106 -8 0 -14 -4 -14 -9z"/>
<path d="M1390 160 c0 -5 5 -10 10 -10 6 0 10 5 10 10 0 6 -4 10 -10 10 -5 0
-10 -4 -10 -10z"/>
<path d="M1010 140 c0 -5 5 -10 11 -10 5 0 7 5 4 10 -3 6 -8 10 -11 10 -2 0
-4 -4 -4 -10z"/>
<path d="M1205 130 c-3 -5 -1 -10 4 -10 6 0 11 5 11 10 0 6 -2 10 -4 10 -3 0
-8 -4 -11 -10z"/>
</g>
</svg>
