<?xml version="1.0" standalone="no"?>
<!DOCTYPE svg PUBLIC "-//W3C//DTD SVG 20010904//EN"
 "http://www.w3.org/TR/2001/REC-SVG-20010904/DTD/svg10.dtd">
<svg version="1.0" xmlns="http://www.w3.org/2000/svg"
 width="942.000000pt" height="623.000000pt" viewBox="0 0 942.000000 623.000000"
 preserveAspectRatio="xMidYMid meet">

<g transform="translate(0.000000,623.000000) scale(0.100000,-0.100000)"
fill="#000000" stroke="none">
<path d="M8765 3815 c-22 -8 -41 -15 -42 -15 -1 0 -14 -17 -28 -37 -30 -46
-32 -96 -5 -141 92 -151 328 -37 251 121 -33 69 -105 98 -176 72z"/>
<path d="M5819 3750 c-153 -14 -277 -76 -381 -188 -215 -233 -208 -662 15
-885 123 -124 270 -173 486 -164 193 8 316 57 445 179 l71 67 -88 89 -89 89
-56 -59 c-80 -84 -158 -120 -277 -126 -183 -9 -311 59 -375 200 -11 24 -20 55
-20 71 l0 27 449 0 450 0 7 46 c3 25 3 77 0 115 -36 363 -282 571 -637 539z
m185 -253 c87 -30 162 -115 181 -204 l7 -33 -316 0 c-246 0 -316 3 -316 13 1
27 41 98 79 139 87 95 237 130 365 85z"/>
<path d="M460 3743 c-112 -13 -278 -76 -350 -132 -24 -19 -24 -19 -11 -98 7
-43 16 -82 20 -86 4 -4 30 3 57 17 97 48 159 61 304 61 144 0 211 -15 319 -70
213 -108 367 -333 386 -562 l5 -68 -19 52 c-91 245 -277 396 -534 434 -124 18
-283 -12 -392 -76 -25 -15 -45 -30 -45 -35 0 -38 93 -197 172 -296 173 -214
451 -343 782 -361 l109 -6 -6 289 c-4 236 -9 306 -25 379 -71 326 -268 512
-585 555 -78 10 -119 11 -187 3z"/>
<path d="M1933 3740 c-259 -36 -454 -189 -539 -423 -48 -134 -56 -196 -61
-504 l-5 -293 67 0 c93 0 251 26 361 60 271 84 464 251 598 517 20 40 36 77
36 82 0 15 -83 59 -166 87 -100 34 -252 38 -353 11 -218 -59 -389 -221 -457
-432 l-13 -40 0 41 c-1 22 8 76 19 120 83 326 362 544 699 544 99 0 208 -24
291 -64 37 -18 56 -23 61 -15 3 6 12 45 19 86 13 75 13 76 -11 94 -45 35 -184
98 -249 114 -83 19 -218 26 -297 15z"/>
<path d="M2930 3131 l0 -601 239 0 c422 0 571 38 717 184 115 115 154 224 154
430 0 253 -87 409 -282 505 -133 66 -181 73 -525 78 l-303 5 0 -601z m560 349
c125 -24 218 -89 262 -185 20 -43 23 -66 23 -160 -1 -137 -21 -191 -99 -263
-81 -73 -189 -101 -388 -102 l-98 0 0 360 0 360 124 0 c68 0 147 -4 176 -10z"/>
<path d="M4120 3333 c0 -433 5 -485 56 -584 39 -79 81 -128 146 -169 87 -57
163 -74 300 -67 165 7 183 16 238 115 39 72 48 82 72 82 l28 0 0 -90 0 -90
120 0 120 0 0 600 0 600 -130 0 -130 0 0 -377 c0 -375 0 -378 -24 -428 -32
-69 -109 -137 -182 -160 -131 -41 -264 11 -328 130 -20 39 -21 53 -24 438 l-3
397 -129 0 -130 0 0 -397z"/>
<path d="M6760 3640 l0 -90 -110 0 -110 0 0 -120 0 -120 110 0 110 0 0 -233
c0 -264 9 -319 65 -404 40 -60 79 -92 160 -130 57 -26 68 -28 200 -28 138 0
141 0 213 34 53 25 88 50 127 92 71 77 96 144 103 272 l5 98 -129 -3 -129 -3
-5 -75 c-6 -92 -29 -135 -89 -167 -96 -50 -197 -16 -242 82 -16 35 -19 67 -19
253 l0 212 359 0 359 0 4 -252 c4 -235 6 -257 27 -311 12 -32 37 -77 55 -100
33 -44 116 -100 176 -118 53 -17 230 -23 290 -10 129 28 230 105 282 218 27
57 32 81 36 170 l5 104 -129 -3 -129 -3 -5 -75 c-6 -86 -27 -132 -73 -160 -96
-59 -213 -25 -258 75 -16 35 -19 68 -19 253 l0 212 305 0 305 0 0 120 0 120
-305 0 -305 0 0 90 0 90 -130 0 -130 0 0 -90 0 -90 -360 0 -360 0 0 90 0 90
-130 0 -130 0 0 -90z"/>
<path d="M8690 2985 l0 -455 125 0 125 0 0 455 0 455 -125 0 -125 0 0 -455z"/>
</g>
</svg>
