<?xml version="1.0" standalone="no"?>
<!DOCTYPE svg PUBLIC "-//W3C//DTD SVG 20010904//EN"
 "http://www.w3.org/TR/2001/REC-SVG-20010904/DTD/svg10.dtd">
<svg version="1.0" xmlns="http://www.w3.org/2000/svg"
 width="942.000000pt" height="623.000000pt" viewBox="0 0 942.000000 623.000000"
 preserveAspectRatio="xMidYMid meet">

<g transform="translate(0.000000,623.000000) scale(0.100000,-0.100000)"
fill="#000000" stroke="none">
<path d="M5400 3706 l-35 -13 -5 -176 -5 -176 -58 39 c-121 82 -281 65 -388
-42 -88 -89 -119 -256 -67 -370 14 -30 42 -74 63 -96 88 -98 239 -127 357 -69
68 34 135 105 163 173 17 45 19 80 23 397 2 191 0 347 -5 346 -4 0 -24 -6 -43
-13z m-147 -399 c98 -66 135 -203 83 -312 -42 -90 -112 -135 -208 -135 -89 0
-164 50 -204 135 -26 56 -30 112 -12 183 14 56 93 141 148 159 58 20 138 7
193 -30z"/>
<path d="M6996 3584 c-41 -40 7 -109 59 -86 20 9 25 19 25 46 0 51 -50 75 -84
40z"/>
<path d="M860 3540 c-71 -10 -85 -16 -145 -60 -59 -43 -89 -99 -129 -235 -15
-49 -34 -112 -42 -140 -26 -80 -30 -197 -9 -251 22 -58 66 -109 119 -137 54
-29 173 -30 228 -3 90 44 111 84 212 406 96 305 109 338 153 389 l35 41 -184
-1 c-101 -1 -208 -5 -238 -9z"/>
<path d="M6303 3535 c-31 -13 -33 -17 -33 -65 l0 -50 -81 0 -80 0 3 -42 3 -43
77 -3 78 -3 2 -272 3 -272 43 -3 42 -3 0 275 0 276 79 0 79 0 4 34 c6 54 3 56
-83 56 l-79 0 0 65 c0 71 -3 74 -57 50z"/>
<path d="M1454 3501 c-88 -51 -100 -76 -258 -583 -34 -107 -56 -159 -81 -192
l-35 -46 208 0 c244 0 284 8 357 72 57 50 76 91 136 283 38 122 43 152 44 235
0 105 -9 130 -67 189 -49 51 -101 71 -183 71 -59 0 -78 -5 -121 -29z"/>
<path d="M2344 3407 c-84 -40 -126 -118 -105 -193 20 -72 76 -104 224 -129
119 -20 146 -30 180 -60 49 -46 25 -120 -49 -151 -39 -16 -153 -18 -206 -4
-40 11 -98 70 -98 99 0 10 -3 20 -6 24 -6 6 -64 -11 -77 -23 -13 -12 32 -98
67 -127 60 -51 112 -67 217 -68 87 0 101 3 154 30 76 39 105 85 105 166 0 108
-73 165 -253 193 -125 20 -164 37 -173 71 -31 125 244 161 317 41 10 -17 20
-35 22 -40 2 -5 20 -3 40 3 32 11 37 16 31 34 -13 45 -55 97 -101 124 -41 24
-60 28 -143 31 -84 3 -101 0 -146 -21z"/>
<path d="M3024 3410 c-134 -53 -222 -218 -195 -364 14 -76 32 -114 80 -168
123 -138 339 -139 460 -2 48 55 68 97 82 169 26 141 -51 294 -180 357 -65 32
-177 35 -247 8z m204 -79 c48 -25 95 -72 118 -119 26 -51 26 -174 0 -222 -93
-177 -316 -180 -409 -6 -17 32 -22 58 -22 121 0 74 3 85 32 130 32 49 85 94
127 107 44 13 117 8 154 -11z"/>
<path d="M4345 3406 c-54 -25 -110 -81 -130 -131 -10 -21 -14 -96 -15 -250 -1
-121 -1 -226 -1 -233 1 -9 13 -12 39 -10 l37 3 5 220 c6 249 10 265 82 313 34
22 53 27 103 27 50 0 69 -5 103 -27 73 -49 77 -63 80 -315 l3 -223 40 0 39 0
0 218 c0 119 -5 234 -10 254 -16 57 -69 119 -129 150 -71 37 -171 39 -246 4z"/>
<path d="M5675 3412 c-56 -24 -79 -42 -104 -82 -25 -42 -27 -99 -5 -146 22
-46 96 -80 225 -104 121 -21 136 -26 167 -53 15 -14 22 -32 22 -57 0 -74 -56
-110 -174 -110 -42 0 -91 6 -109 14 -43 18 -84 61 -92 96 -6 27 -8 28 -38 18
-46 -16 -50 -22 -37 -62 14 -44 70 -99 130 -128 37 -18 63 -22 145 -22 93 -1
104 1 155 29 143 78 147 245 8 316 -21 11 -93 31 -159 44 -143 28 -169 42
-169 88 0 37 27 69 73 86 39 15 131 14 170 -3 36 -14 87 -69 87 -92 0 -17 7
-17 49 -3 34 12 38 27 17 67 -21 40 -65 78 -116 101 -58 26 -186 28 -245 3z"/>
<path d="M6709 3403 c-66 -34 -113 -94 -128 -163 -6 -28 -11 -143 -11 -255 l0
-205 44 0 45 0 3 234 c3 218 4 237 24 263 30 42 99 73 161 73 l53 0 0 40 0 40
-68 0 c-55 0 -79 -5 -123 -27z"/>
<path d="M7363 3406 c-68 -32 -137 -106 -165 -175 -22 -53 -23 -71 -26 -388
-2 -236 0 -333 8 -333 6 0 26 7 45 14 l35 15 0 166 0 167 29 -25 c61 -51 120
-72 201 -72 129 1 224 63 282 184 60 126 38 270 -56 369 -72 76 -113 95 -216
99 -74 4 -91 1 -137 -21z m191 -67 c52 -14 141 -103 155 -155 34 -122 -17
-252 -120 -304 -45 -24 -134 -27 -182 -7 -157 66 -197 284 -74 405 65 64 138
84 221 61z"/>
<path d="M8083 3414 c-57 -21 -132 -90 -168 -156 -28 -49 -30 -61 -30 -153 0
-91 3 -105 29 -158 35 -67 82 -113 151 -147 41 -20 66 -25 135 -25 91 0 158
22 209 68 28 26 81 106 81 122 0 7 -17 17 -37 23 -33 10 -39 10 -48 -4 -38
-62 -55 -81 -90 -102 -34 -19 -52 -22 -116 -20 -64 3 -83 8 -125 33 -52 33
-98 97 -108 153 l-5 32 276 0 276 0 -7 54 c-13 113 -76 211 -167 261 -44 24
-68 29 -134 32 -54 2 -94 -2 -122 -13z m176 -79 c54 -19 89 -46 124 -97 47
-70 52 -68 -188 -68 -235 0 -232 -1 -201 58 21 40 65 78 116 101 54 25 93 26
149 6z"/>
<path d="M3546 3398 c-10 -39 -7 -338 5 -405 15 -86 57 -147 129 -187 49 -28
64 -31 135 -31 69 1 87 4 133 30 52 28 93 75 120 138 8 19 12 99 12 252 l0
225 -40 0 -40 0 0 -209 c0 -228 -5 -254 -57 -302 -42 -39 -66 -49 -124 -49
-67 0 -126 29 -159 77 -25 36 -25 40 -28 260 l-3 223 -38 0 c-32 0 -40 -4 -45
-22z"/>
<path d="M6990 3100 l0 -320 40 0 40 0 0 320 0 320 -40 0 -40 0 0 -320z"/>
</g>
</svg>
